<?xml version="1.0" encoding="UTF-8" standalone="no"?>
<!-- Created with Inkscape (http://www.inkscape.org/) -->

<svg
   height="20"
   width="20"
   version="1.1"
   viewBox="0 0 5.2916666 5.2916669"
   id="svg13"
   sodipodi:docname="close_hover-inactive.svg"
   inkscape:version="1.4 (e7c3feb100, 2024-10-09)"
   xmlns:inkscape="http://www.inkscape.org/namespaces/inkscape"
   xmlns:sodipodi="http://sodipodi.sourceforge.net/DTD/sodipodi-0.dtd"
   xmlns="http://www.w3.org/2000/svg"
   xmlns:svg="http://www.w3.org/2000/svg"
   xmlns:rdf="http://www.w3.org/1999/02/22-rdf-syntax-ns#"
   xmlns:cc="http://creativecommons.org/ns#"
   xmlns:dc="http://purl.org/dc/elements/1.1/">
  <defs
     id="defs17" />
  <sodipodi:namedview
     pagecolor="#ffffff"
     bordercolor="#666666"
     inkscape:document-rotation="0"
     borderopacity="1"
     objecttolerance="10"
     gridtolerance="10"
     guidetolerance="10"
     inkscape:pageopacity="0"
     inkscape:pageshadow="2"
     inkscape:window-width="1366"
     inkscape:window-height="705"
     id="namedview15"
     showgrid="false"
     showguides="true"
     inkscape:guide-bbox="true"
     inkscape:zoom="25.404508"
     inkscape:cx="7.3608983"
     inkscape:cy="11.395615"
     inkscape:window-x="0"
     inkscape:window-y="0"
     inkscape:window-maximized="1"
     inkscape:current-layer="svg13"
     inkscape:showpageshadow="2"
     inkscape:pagecheckerboard="0"
     inkscape:deskcolor="#d1d1d1">
    <sodipodi:guide
       position="2.6511798,3.9767699"
       orientation="1,0"
       id="guide19"
       inkscape:locked="false" />
    <sodipodi:guide
       position="2.4891633,2.65118"
       orientation="0,1"
       id="guide21"
       inkscape:locked="false" />
  </sodipodi:namedview>
  <metadata
     id="metadata2">
    <rdf:RDF>
      <cc:Work
         rdf:about="">
        <dc:format>image/svg+xml</dc:format>
        <dc:type
           rdf:resource="http://purl.org/dc/dcmitype/StillImage" />
        <dc:title />
      </cc:Work>
    </rdf:RDF>
  </metadata>
  <g
     id="g1">
    <path
       d="m 2.6511798,4.500328 c 1.022862,0 1.8520382,-0.8292168 1.8520382,-1.8520382 0,-1.0228619 -0.8291762,-1.85207882 -1.8520382,-1.85207882 -1.022862,0 -1.85207884,0.82917622 -1.85207884,1.85207882 0,1.022862 0.82921684,1.8520382 1.85207884,1.8520382"
       fill="#d52735"
       id="path4"
       inkscape:connector-curvature="0"
       style="fill-rule:evenodd;stroke-width:0.0040622" />
    <path
       d="m 2.6511798,4.3428122 c 0.9358496,0 1.6945061,-0.7586971 1.6945061,-1.6945467 0,-0.9358903 -0.7586565,-1.69454678 -1.6945061,-1.69454678 -0.9358903,0 -1.69454673,0.75865648 -1.69454673,1.69454678 0,0.9358496 0.75865643,1.6945467 1.69454673,1.6945467"
       fill="#d52735"
       id="path6"
       inkscape:connector-curvature="0"
       style="fill-rule:evenodd;stroke-width:0.0040622;fill:#f32e53;fill-opacity:1" />
    <path
       d="M 1.7776037,3.3037949 3.3066564,1.7747421 c 0.059174,-0.05919 0.1559885,-0.05919 0.215195,0 l 0.00283,0.00284 c 0.05919,0.059174 0.05919,0.1560047 1.62e-5,0.2151829 l -1.529012,1.5290527 c -0.05919,0.05919 -0.1560048,0.05919 -0.2151788,0 l -0.00286,-0.00283 c -0.059174,-0.05919 -0.059174,-0.1560047 0,-0.215195"
       fill="#9f1d2b"
       id="path8"
       inkscape:connector-curvature="0"
       style="fill-rule:evenodd;stroke-width:0.0040622" />
    <path
       d="m 1.9956626,1.7747421 1.5290121,1.5290528 c 0.05917,0.05917 0.05917,0.1560047 0,0.215195 l -0.00285,0.00283 c -0.05919,0.05919 -0.1560007,0.05919 -0.2151788,0 L 1.7775964,1.9927217 c -0.059194,-0.059174 -0.059194,-0.1560047 0,-0.2151828 l 0.00284,-0.00284 c 0.05919,-0.05919 0.1560047,-0.05919 0.215195,0"
       fill="#9f1d2b"
       id="path10"
       inkscape:connector-curvature="0"
       style="fill-rule:evenodd;stroke-width:0.0040622" />
  </g>
</svg>
