<?xml version="1.0" encoding="UTF-8" standalone="no"?>
<!-- Created with Inkscape (http://www.inkscape.org/) -->

<svg
   height="20"
   width="20"
   version="1.1"
   viewBox="0 0 5.2916666 5.2916669"
   id="svg11"
   sodipodi:docname="iconify_hover-inactive.svg"
   inkscape:version="1.4 (e7c3feb100, 2024-10-09)"
   xmlns:inkscape="http://www.inkscape.org/namespaces/inkscape"
   xmlns:sodipodi="http://sodipodi.sourceforge.net/DTD/sodipodi-0.dtd"
   xmlns="http://www.w3.org/2000/svg"
   xmlns:svg="http://www.w3.org/2000/svg"
   xmlns:rdf="http://www.w3.org/1999/02/22-rdf-syntax-ns#"
   xmlns:cc="http://creativecommons.org/ns#"
   xmlns:dc="http://purl.org/dc/elements/1.1/">
  <defs
     id="defs15" />
  <sodipodi:namedview
     pagecolor="#ffffff"
     bordercolor="#666666"
     inkscape:document-rotation="0"
     borderopacity="1"
     objecttolerance="10"
     gridtolerance="10"
     guidetolerance="10"
     inkscape:pageopacity="0"
     inkscape:pageshadow="2"
     inkscape:window-width="1366"
     inkscape:window-height="705"
     id="namedview13"
     showgrid="false"
     showguides="true"
     inkscape:guide-bbox="true"
     inkscape:zoom="35.9274"
     inkscape:cx="7.4873217"
     inkscape:cy="10.00629"
     inkscape:window-x="0"
     inkscape:window-y="0"
     inkscape:window-maximized="1"
     inkscape:current-layer="svg11"
     inkscape:showpageshadow="2"
     inkscape:pagecheckerboard="0"
     inkscape:deskcolor="#d1d1d1">
    <sodipodi:guide
       position="2.6217223,3.8294822"
       orientation="1,0"
       id="guide17"
       inkscape:locked="false" />
    <sodipodi:guide
       position="4.2271589,2.6364512"
       orientation="0,1"
       id="guide19"
       inkscape:locked="false" />
  </sodipodi:namedview>
  <metadata
     id="metadata2">
    <rdf:RDF>
      <cc:Work
         rdf:about="">
        <dc:format>image/svg+xml</dc:format>
        <dc:type
           rdf:resource="http://purl.org/dc/dcmitype/StillImage" />
      </cc:Work>
    </rdf:RDF>
  </metadata>
  <g
     id="g1">
    <path
       d="m 2.6217223,4.5388753 c 1.022862,0 1.8520788,-0.8291763 1.8520788,-1.8520789 0,-1.0228619 -0.8291762,-1.8520382 -1.8520788,-1.8520382 -1.022862,0 -1.85203822,0.8292169 -1.85203822,1.8520788 -3.25e-6,1.022862 0.82917622,1.8520383 1.85203822,1.8520383"
       fill="#da9e10"
       id="path4"
       inkscape:connector-curvature="0"
       style="fill-rule:evenodd;stroke-width:0.0040622" />
    <path
       d="m 2.6217223,4.3813643 c 0.9358496,0 1.6945467,-0.7586565 1.6945467,-1.6945467 0,-0.9358497 -0.7586564,-1.69454678 -1.6945467,-1.69454678 -0.9358496,0 -1.69454673,0.75865648 -1.69454673,1.69454678 0,0.9358902 0.75869713,1.6945467 1.69454673,1.6945467"
       fill="#fac536"
       id="path6"
       inkscape:connector-curvature="0"
       style="fill-rule:evenodd;stroke-width:0.0040622;fill:#dda85b;fill-opacity:1" />
    <path
       d="m 1.5405271,2.5326733 h 2.162431 c 0.083697,0 0.1521619,0.068448 0.1521619,0.1521619 v 0.00401 c 0,0.083714 -0.068464,0.1521618 -0.1521619,0.1521618 h -2.162431 c -0.083702,0 -0.1521618,-0.068448 -0.1521618,-0.1521618 v -0.00401 c 0,-0.083714 0.06846,-0.1521619 0.1521618,-0.1521619"
       fill="#975914"
       id="path8"
       inkscape:connector-curvature="0"
       style="fill-rule:evenodd;stroke-width:0.0040622" />
  </g>
</svg>
